<svg width="348" height="97" viewBox="0 0 348 97" fill="none" xmlns="http://www.w3.org/2000/svg">
<rect width="97" height="97" rx="11" fill="#585757" fill-opacity="0.2"/>
<path d="M18.9783 81.5362L44.7149 16.5311C44.8757 16.125 45.4433 16.1058 45.6312 16.5002L75.7963 79.8229C75.8202 79.873 75.7568 79.9189 75.7166 79.8805L45.1375 50.7024" stroke="white" stroke-width="8" stroke-linecap="round"/>
<path d="M115.84 77H108.64L128.48 26.84H135.52L155.12 77H147.92L143.36 64.92H120.4L115.84 77ZM131.84 33.08C131.307 34.9467 130.667 36.92 129.92 39C129.227 41.08 128.507 43.16 127.76 45.24L122.64 58.92H141.12L136 45.24C134.933 42.3067 134.08 39.9333 133.44 38.12C132.853 36.3067 132.32 34.6267 131.84 33.08ZM173.346 77.64C168.972 77.64 165.692 76.5467 163.506 74.36C161.319 72.1733 160.226 68.8933 160.226 64.52V37.48H166.786V63.72C166.786 66.44 167.479 68.4133 168.866 69.64C170.252 70.8667 172.439 71.48 175.426 71.48C177.239 71.48 179.052 71.2667 180.866 70.84C182.732 70.36 184.599 69.64 186.466 68.68V37.48H193.026V77H187.026L186.706 73.72H186.546C183.772 75.16 181.372 76.1733 179.346 76.76C177.319 77.3467 175.319 77.64 173.346 77.64ZM217.193 42.6C213.779 42.6 211.406 43 210.072 43.8C208.793 44.6 208.153 46.2267 208.153 48.68C208.153 49.96 208.446 50.9467 209.033 51.64C209.673 52.28 210.659 52.7067 211.993 52.92L222.153 54.44C225.353 54.92 227.593 55.9333 228.873 57.48C230.153 58.9733 230.793 61.3467 230.793 64.6C230.793 69.1867 229.699 72.52 227.513 74.6C225.326 76.6267 221.699 77.64 216.633 77.64C213.593 77.64 210.766 77.48 208.153 77.16C205.539 76.84 203.379 76.4133 201.673 75.88V69.72C203.379 70.2533 205.459 70.7067 207.913 71.08C210.419 71.4 212.979 71.56 215.593 71.56C218.899 71.56 221.166 71.08 222.393 70.12C223.619 69.16 224.233 67.4533 224.233 65C224.233 63.4533 223.886 62.3333 223.193 61.64C222.499 60.8933 221.246 60.3867 219.432 60.12L209.273 58.6C206.713 58.2267 204.793 57.24 203.513 55.64C202.286 54.04 201.646 51.72 201.593 48.68C201.593 44.52 202.819 41.48 205.273 39.56C207.779 37.64 211.619 36.68 216.793 36.68C218.926 36.68 220.846 36.7333 222.553 36.84C224.313 36.9467 226.153 37.16 228.073 37.48V43.32C226.686 43.1067 225.059 42.9467 223.193 42.84C221.326 42.68 219.326 42.6 217.193 42.6ZM261.558 70.84V76.36C260.705 76.7333 259.531 77.0267 258.038 77.24C256.598 77.5067 255.211 77.64 253.878 77.64C249.078 77.64 245.638 76.5733 243.558 74.44C241.531 72.3067 240.518 68.6267 240.518 63.4V43.08H234.598V37.48H240.598L241.638 27.88H247.078V37.48H261.158V43.08H247.078V63.16C247.078 66.4133 247.665 68.6267 248.838 69.8C250.065 70.9733 252.198 71.56 255.238 71.56C256.198 71.56 257.291 71.48 258.518 71.32C259.798 71.16 260.811 71 261.558 70.84ZM274.606 77H268.046V37.48H274.046L274.366 40.84H274.686C276.766 39.6133 278.846 38.7067 280.926 38.12C283.006 37.48 285.059 37.16 287.086 37.16C287.939 37.16 288.499 37.16 288.766 37.16C289.086 37.16 289.326 37.1867 289.486 37.24V43.56C289.112 43.4533 288.632 43.4 288.046 43.4C287.512 43.3467 286.659 43.32 285.486 43.32C283.566 43.32 281.672 43.56 279.806 44.04C277.992 44.4667 276.259 45.1333 274.606 46.04V77ZM329.953 57.16C329.953 64.6267 328.566 69.9067 325.793 73C323.073 76.0933 318.38 77.64 311.713 77.64C304.833 77.64 300.06 76.1467 297.393 73.16C294.726 70.1733 293.393 64.84 293.393 57.16C293.393 49.64 294.753 44.36 297.473 41.32C300.246 38.2267 304.993 36.68 311.713 36.68C318.593 36.68 323.34 38.1733 325.953 41.16C328.62 44.1467 329.953 49.48 329.953 57.16ZM299.953 57.08C299.953 62.9467 300.726 66.84 302.273 68.76C303.82 70.6267 306.966 71.56 311.713 71.56C316.3 71.56 319.393 70.5733 320.993 68.6C322.593 66.5733 323.393 62.7333 323.393 57.08C323.393 51.2133 322.62 47.3467 321.073 45.48C319.58 43.56 316.46 42.6 311.713 42.6C307.073 42.6 303.953 43.5867 302.353 45.56C300.753 47.5333 299.953 51.3733 299.953 57.08Z" fill="white"/>
</svg>
